# xmcd CD database file
#
# Track frame offsets:
#	182
#	9392
#	23427
#
# Disc length: 552 seconds
#
# Revision: 0
# Processed by: cddbd v1.5.1PL0 Copyright (c) Steve Scherf et al.
# Submitted via: CDex 1.51
#
DISCID=10022603
DTITLE=Flyscreen - Choppersquad
DYEAR=1996
DGENRE=Rhythmic Soul
TTITLE0=Choppersquad
TTITLE1=Hiphiphooray
TTITLE2=Shortmenonstilts
EXTD=YEAR: 1996
EXTT0=
EXTT1=
EXTT2=
PLAYORDER=
